<svg width="801" height="170" viewBox="0 0 801 170" fill="none" xmlns="http://www.w3.org/2000/svg">
<path d="M84.13 103.165V80.84H154.865V166.85H131.6L129.25 147.815H128.075C119.85 157.92 102.225 169.2 79.665 169.2C35.25 169.2 3.49991e-05 134.42 3.49991e-05 84.6C3.49991e-05 34.545 35.485 -2.86102e-06 79.665 -2.86102e-06C119.615 -2.86102e-06 145.7 27.965 153.69 56.165H121.965C115.15 40.89 98.935 29.375 79.665 29.375C52.17 29.375 30.55 50.995 30.55 84.6C30.55 117.97 52.17 139.825 79.665 139.825C105.75 139.825 122.905 120.32 124.315 104.34L124.55 103.165H84.13ZM194.033 166.85H165.363V47.94H190.038L192.388 58.045H193.563C197.323 52.64 203.903 47.94 215.183 47.94H237.038V74.965H217.063C202.023 74.965 194.033 82.955 194.033 98.465V166.85ZM280.535 169.2C254.215 169.2 237.765 153.22 237.765 132.54C237.765 109.745 253.275 93.765 286.175 93.765H314.61V90.945C314.61 78.02 305.915 69.325 292.52 69.325C279.36 69.325 272.31 76.61 270.665 83.425H242.23C244.11 64.39 261.265 45.59 292.52 45.59C324.01 45.59 343.28 64.39 343.28 90.945V166.85H318.37L316.02 155.1H314.845C310.38 161.21 298.16 169.2 280.535 169.2ZM285.47 145.935C303.565 145.935 314.61 135.125 314.61 117.97V114.445H288.995C273.25 114.445 266.67 121.26 266.67 130.425C266.67 139.59 273.25 145.935 285.47 145.935ZM407.149 169.2C376.599 169.2 352.159 144.29 352.159 107.395C352.159 70.5 376.599 45.59 407.149 45.59C423.364 45.59 435.114 52.64 441.224 60.395H442.399V2.34999H471.304V166.85H446.394L444.044 153.22H442.869C435.819 162.385 424.069 169.2 407.149 169.2ZM411.849 142.645C428.769 142.645 442.399 129.015 442.399 107.395C442.399 85.775 428.769 72.145 411.849 72.145C394.929 72.145 381.064 85.775 381.064 107.395C381.064 129.015 394.929 142.645 411.849 142.645Z" fill="#7E7E7E"/>
<path d="M539.52 169.2C522.6 169.2 510.85 162.385 503.8 153.22H502.625L500.275 166.85H475.6V2.34999H504.27V60.395H505.445C511.79 52.64 523.54 45.59 539.52 45.59C570.07 45.59 594.51 70.5 594.51 107.395C594.51 144.29 570.07 169.2 539.52 169.2ZM535.055 142.645C551.975 142.645 565.84 129.015 565.84 107.395C565.84 85.775 551.975 72.145 535.055 72.145C518.135 72.145 504.27 85.775 504.27 107.395C504.27 129.015 518.135 142.645 535.055 142.645ZM662.966 169.2C628.421 169.2 602.571 143.115 602.571 107.395C602.571 71.44 628.421 45.59 662.966 45.59C697.511 45.59 723.361 71.44 723.361 107.395C723.361 143.115 697.511 169.2 662.966 169.2ZM662.966 142.41C680.356 142.41 694.456 128.545 694.456 107.395C694.456 86.245 680.356 72.145 662.966 72.145C645.576 72.145 631.241 86.245 631.241 107.395C631.241 128.545 645.576 142.41 662.966 142.41ZM800.941 166.85H774.856C755.586 166.85 745.011 156.275 745.011 138.885V74.965H726.211V47.94H745.011V12.22H773.916V47.94H800.941V74.965H773.916V133.01C773.916 138.415 776.266 140.765 781.671 140.765H800.941V166.85Z" fill="black"/>
</svg>
